<svg xmlns="http://www.w3.org/2000/svg" width="364" height="263" viewBox="0 0 364 263" version="1.1"><path d="M 255.784 10.738 C 258.689 10.941, 263.189 10.939, 265.784 10.734 C 268.378 10.528, 266 10.363, 260.500 10.365 C 255 10.368, 252.878 10.536, 255.784 10.738 M 243.269 11.693 C 244.242 11.947, 245.592 11.930, 246.269 11.656 C 246.946 11.382, 246.150 11.175, 244.500 11.195 C 242.850 11.215, 242.296 11.439, 243.269 11.693 M 273.264 11.718 C 274.784 11.947, 277.034 11.941, 278.264 11.704 C 279.494 11.467, 278.250 11.279, 275.500 11.286 C 272.750 11.294, 271.744 11.488, 273.264 11.718 M 235.750 12.662 C 236.438 12.940, 237.563 12.940, 238.250 12.662 C 238.938 12.385, 238.375 12.158, 237 12.158 C 235.625 12.158, 235.063 12.385, 235.750 12.662 M 290 15 C 290.825 15.533, 291.950 15.969, 292.500 15.969 C 293.050 15.969, 292.825 15.533, 292 15 C 291.175 14.467, 290.050 14.031, 289.500 14.031 C 288.950 14.031, 289.175 14.467, 290 15 M 264.750 23.732 C 267.087 23.943, 270.913 23.943, 273.250 23.732 C 275.587 23.522, 273.675 23.349, 269 23.349 C 264.325 23.349, 262.413 23.522, 264.750 23.732 M 251.250 24.689 C 252.213 24.941, 253.787 24.941, 254.750 24.689 C 255.713 24.438, 254.925 24.232, 253 24.232 C 251.075 24.232, 250.287 24.438, 251.250 24.689 M 243.589 25.856 C 243.298 26.326, 244.172 26.499, 245.530 26.239 C 246.889 25.979, 248 25.594, 248 25.383 C 248 24.610, 244.101 25.027, 243.589 25.856 M 307.023 28.315 C 308.219 30.342, 309.041 32.001, 308.849 32.002 C 292.120 32.107, 272.944 33.148, 264.500 34.409 C 216.513 41.580, 155.575 66.426, 110 97.402 C 102.500 102.500, 102.500 102.500, 107 102.823 C 109.475 103.001, 116.900 102.988, 123.500 102.795 C 135.500 102.444, 135.500 102.444, 143 98.084 C 147.125 95.686, 152.189 92.211, 154.253 90.362 C 156.621 88.240, 159.039 87, 160.806 87 C 162.346 87, 167.301 85.213, 171.817 83.029 C 196.239 71.219, 229.596 60.659, 257.970 55.756 C 275.813 52.673, 301.938 52.691, 313.824 55.795 C 330.298 60.097, 341.099 67.376, 345.986 77.470 C 347.749 81.113, 348.480 84.750, 348.917 92.066 C 349.238 97.425, 349.212 101.632, 348.860 101.414 C 348.140 100.969, 346.630 107.963, 347.301 108.634 C 347.933 109.266, 354.567 95.378, 356.679 89 C 357.952 85.154, 358.500 80.493, 358.500 73.500 C 358.500 64.406, 358.232 62.971, 355.545 57.663 C 349.162 45.053, 335.065 36.891, 313.861 33.528 C 311.041 33.081, 309.948 32.289, 309.004 30.009 C 308.333 28.390, 307.124 26.518, 306.317 25.848 C 305.485 25.157, 305.790 26.225, 307.023 28.315 M 181 28 C 180.175 28.533, 179.950 28.969, 180.500 28.969 C 181.050 28.969, 182.175 28.533, 183 28 C 183.825 27.467, 184.050 27.031, 183.500 27.031 C 182.950 27.031, 181.825 27.467, 181 28 M 302.083 29.365 C 302.313 29.565, 303.625 30.265, 305 30.920 C 307.357 32.042, 307.389 32.022, 305.559 30.555 C 303.966 29.279, 300.711 28.164, 302.083 29.365 M 171 32 C 170.175 32.533, 169.950 32.969, 170.500 32.969 C 171.050 32.969, 172.175 32.533, 173 32 C 173.825 31.467, 174.050 31.031, 173.500 31.031 C 172.950 31.031, 171.825 31.467, 171 32 M 165 34.500 C 163.625 35.286, 162.950 35.929, 163.500 35.929 C 164.050 35.929, 165.625 35.286, 167 34.500 C 168.375 33.714, 169.050 33.071, 168.500 33.071 C 167.950 33.071, 166.375 33.714, 165 34.500 M 172 47 C 171.175 47.533, 170.950 47.969, 171.500 47.969 C 172.050 47.969, 173.175 47.533, 174 47 C 174.825 46.467, 175.050 46.031, 174.500 46.031 C 173.950 46.031, 172.825 46.467, 172 47 M 136.750 48.572 C 133.012 50.600, 133.239 51.445, 137 49.500 C 138.650 48.647, 140 47.735, 140 47.474 C 140 46.831, 139.893 46.867, 136.750 48.572 M 128.441 53.555 C 126.577 55.049, 126.589 55.067, 128.750 54.020 C 129.988 53.420, 131 52.720, 131 52.465 C 131 51.700, 130.481 51.921, 128.441 53.555 M 154 55 C 153.175 55.533, 152.950 55.969, 153.500 55.969 C 154.050 55.969, 155.175 55.533, 156 55 C 156.825 54.467, 157.050 54.031, 156.500 54.031 C 155.950 54.031, 154.825 54.467, 154 55 M 123.441 56.555 C 121.577 58.049, 121.589 58.067, 123.750 57.020 C 124.987 56.420, 126 55.720, 126 55.465 C 126 54.700, 125.481 54.921, 123.441 56.555 M 118.441 59.555 C 116.577 61.049, 116.589 61.067, 118.750 60.020 C 119.987 59.420, 121 58.720, 121 58.465 C 121 57.700, 120.481 57.921, 118.441 59.555 M 113.338 63.750 C 112.399 65.263, 110.701 67.622, 109.565 68.993 C 107.500 71.486, 107.500 71.486, 109.734 69.602 C 111.866 67.805, 116.419 61, 115.489 61 C 115.246 61, 114.278 62.237, 113.338 63.750 M 135.750 64.068 C 133.688 65.157, 132 66.271, 132 66.544 C 132 66.817, 133.800 66.122, 136 65 C 138.200 63.878, 140 62.743, 140 62.480 C 140 61.826, 139.993 61.828, 135.750 64.068 M 123.441 71.555 C 121.577 73.049, 121.589 73.067, 123.750 72.020 C 124.987 71.420, 126 70.720, 126 70.465 C 126 69.700, 125.481 69.921, 123.441 71.555 M 118.441 74.555 C 116.577 76.049, 116.589 76.067, 118.750 75.020 C 119.987 74.420, 121 73.720, 121 73.465 C 121 72.700, 120.481 72.921, 118.441 74.555 M 91.441 78.555 C 89.577 80.049, 89.589 80.067, 91.750 79.020 C 92.987 78.420, 94 77.720, 94 77.465 C 94 76.700, 93.481 76.921, 91.441 78.555 M 105.739 82.521 C 102.033 85.008, 99 87.261, 99 87.529 C 99 87.797, 102.150 85.921, 106 83.361 C 112.124 79.289, 113.744 78, 112.739 78 C 112.596 78, 109.446 80.034, 105.739 82.521 M 83 84.602 C 79.975 87.110, 76.600 90.098, 75.500 91.243 C 74.400 92.388, 76.987 90.491, 81.250 87.028 C 88.042 81.509, 89.724 79.938, 88.750 80.022 C 88.612 80.033, 86.025 82.095, 83 84.602 M 85.405 97.250 C 83.500 99.500, 83.500 99.500, 85.750 97.595 C 86.987 96.547, 88 95.535, 88 95.345 C 88 94.545, 87.195 95.136, 85.405 97.250 M 81 100.500 C 79.428 102.395, 64.430 102.731, 65.595 100.845 C 66.041 100.124, 65.869 99.963, 65.138 100.415 C 62.601 101.983, 65.459 103, 72.404 103 C 78.420 103, 80.006 102.651, 81.500 101 C 82.495 99.900, 83.070 99, 82.777 99 C 82.485 99, 81.685 99.675, 81 100.500 M 123.557 111.223 C 122.701 112.445, 122.052 114.807, 122.115 116.473 C 122.224 119.342, 122.267 119.308, 122.949 115.802 C 123.345 113.769, 124.248 111.406, 124.957 110.552 C 125.665 109.699, 125.990 109, 125.679 109 C 125.368 109, 124.413 110, 123.557 111.223 M 136.232 112 C 136.232 113.925, 136.438 114.713, 136.689 113.750 C 136.941 112.787, 136.941 111.213, 136.689 110.250 C 136.438 109.287, 136.232 110.075, 136.232 112 M 129.429 137.500 C 129.429 150.150, 129.573 155.187, 129.747 148.694 C 129.922 142.200, 129.921 131.850, 129.746 125.694 C 129.571 119.537, 129.428 124.850, 129.429 137.500 M 122.590 125.035 C 122.148 128.363, 121.544 129.836, 120.806 129.380 C 120.129 128.962, 119.971 129.145, 120.405 129.845 C 122.113 132.610, 123.509 130.790, 123.738 125.500 C 124.035 118.627, 123.470 118.399, 122.590 125.035 M 132.148 134.701 C 131.937 144.942, 133.498 151.143, 137.313 155.214 C 139.066 157.085, 139.765 157.690, 138.867 156.558 C 135.064 151.765, 133.706 147.354, 133.008 137.529 C 132.324 127.886, 132.291 127.777, 132.148 134.701 M 139.168 137.102 C 139.020 145.571, 139.266 147.096, 141.250 150.025 C 142.488 151.851, 144.149 153.559, 144.943 153.821 C 145.737 154.082, 145.174 153.084, 143.693 151.602 C 142.212 150.121, 140.945 148.817, 140.877 148.705 C 140.810 148.592, 140.436 143.775, 140.045 138 C 139.335 127.500, 139.335 127.500, 139.168 137.102 M 159.199 135.782 C 158.979 144.960, 157.392 149.912, 153.883 152.369 C 152.603 153.266, 152.044 154, 152.641 154 C 154.660 154, 158.948 148.797, 159.532 145.638 C 159.852 143.912, 159.952 139.125, 159.755 135 C 159.397 127.500, 159.397 127.500, 159.199 135.782 M 165.209 137.282 C 164.978 148.101, 163.633 152.523, 159.301 156.705 C 156.674 159.240, 156.656 159.314, 159 157.888 C 160.375 157.052, 162.530 154.323, 163.788 151.825 C 165.802 147.827, 166.037 146.099, 165.747 137.391 C 165.419 127.500, 165.419 127.500, 165.209 137.282 M 222.667 128.667 C 221.570 129.763, 221.913 144.978, 223.126 149.025 C 223.745 151.092, 225.357 154.069, 226.708 155.641 C 229.165 158.500, 229.165 158.500, 227.196 155.500 C 223.982 150.605, 222.811 145.012, 223.166 136.246 C 223.350 131.708, 223.463 127.996, 223.417 127.998 C 223.371 127.999, 223.033 128.300, 222.667 128.667 M 228.343 135.500 C 228.346 139.900, 228.522 141.576, 228.733 139.224 C 228.945 136.872, 228.942 133.272, 228.727 131.224 C 228.512 129.176, 228.339 131.100, 228.343 135.500 M 248.284 134.848 C 248.983 143.182, 247.920 148.392, 244.857 151.652 C 243.476 153.123, 243.162 153.875, 244.076 153.524 C 247.479 152.219, 249.409 146.758, 249.830 137.250 C 250.139 130.245, 249.932 128, 248.974 128 C 248.022 128, 247.852 129.692, 248.284 134.848 M 255.228 147.668 C 255.103 158.761, 254.741 168.661, 254.424 169.668 C 253.901 171.336, 253.947 171.348, 254.945 169.801 C 255.675 168.672, 255.944 161.307, 255.749 147.801 C 255.456 127.500, 255.456 127.500, 255.228 147.668 M 258.148 134.701 C 257.932 145.226, 259.478 151.107, 263.657 155.656 C 266.755 159.027, 266.858 159.076, 264.496 156.056 C 260.581 151.050, 259.867 148.621, 259.040 137.500 C 258.316 127.766, 258.293 127.691, 258.148 134.701 M 265.367 137.548 C 265.471 145.442, 265.892 148.193, 267.330 150.385 C 268.336 151.919, 269.421 152.912, 269.740 152.593 C 270.060 152.274, 269.461 151.063, 268.411 149.902 C 266.908 148.242, 266.365 145.627, 265.867 137.646 C 265.234 127.500, 265.234 127.500, 265.367 137.548 M 285.196 135.782 C 284.979 144.959, 283.393 149.911, 279.883 152.369 C 278.603 153.266, 278.065 154, 278.689 154 C 280.577 154, 284.881 148.151, 285.518 144.721 C 285.847 142.949, 285.953 138.350, 285.754 134.500 C 285.392 127.500, 285.392 127.500, 285.196 135.782 M 294.811 139.750 C 294.640 146.213, 294.774 153.750, 295.109 156.500 C 295.456 159.347, 295.779 154.287, 295.859 144.750 C 295.937 135.537, 295.802 128, 295.561 128 C 295.319 128, 294.981 133.287, 294.811 139.750 M 301.409 144.500 C 301.408 153.850, 301.558 157.810, 301.743 153.299 C 301.928 148.789, 301.929 141.139, 301.745 136.299 C 301.562 131.460, 301.410 135.150, 301.409 144.500 M 192.209 130.566 C 187.571 133.815, 185.790 139.419, 185.923 150.345 C 185.990 155.863, 186.271 160.604, 186.547 160.880 C 186.823 161.156, 186.993 156.599, 186.925 150.753 C 186.816 141.336, 187.069 139.650, 189.137 135.971 C 190.421 133.686, 192.603 131.201, 193.986 130.449 C 195.369 129.696, 196.038 129.062, 195.473 129.040 C 194.907 129.018, 193.439 129.705, 192.209 130.566 M 212.798 131.580 C 214.611 133.186, 216.729 136.300, 217.504 138.500 C 218.379 140.985, 218.929 141.704, 218.956 140.398 C 219.012 137.705, 215.229 132.149, 212 130.182 C 210.272 129.130, 210.518 129.561, 212.798 131.580 M 86.226 131.579 C 87.176 132.570, 88.168 133.166, 88.431 132.903 C 88.694 132.640, 87.917 131.829, 86.705 131.100 C 84.598 129.835, 84.577 129.857, 86.226 131.579 M 100.118 133.518 C 98.419 135.453, 96.742 138.180, 96.391 139.578 C 95.531 143.006, 96.495 150.898, 97.950 152.337 C 98.851 153.228, 98.877 152.841, 98.063 150.685 C 96.675 147.010, 96.705 140.442, 98.122 137.684 C 98.739 136.483, 100.399 134.262, 101.809 132.750 C 103.220 131.238, 104.112 130, 103.791 130 C 103.470 130, 101.817 131.583, 100.118 133.518 M 291.343 140.500 C 291.346 144.900, 291.522 146.576, 291.733 144.224 C 291.945 141.872, 291.942 138.272, 291.727 136.224 C 291.512 134.176, 291.339 136.100, 291.343 140.500 M 75.269 134.693 C 76.242 134.947, 77.592 134.930, 78.269 134.656 C 78.946 134.382, 78.150 134.175, 76.500 134.195 C 74.850 134.215, 74.296 134.439, 75.269 134.693 M 90.567 136.268 C 91.495 137.790, 92.309 141.025, 92.377 143.456 C 92.445 145.889, 92.884 147.498, 93.354 147.034 C 94.692 145.715, 93.037 138.247, 90.853 135.753 C 88.881 133.500, 88.881 133.500, 90.567 136.268 M 111.269 134.693 C 112.242 134.947, 113.592 134.930, 114.269 134.656 C 114.946 134.382, 114.150 134.175, 112.500 134.195 C 110.850 134.215, 110.296 134.439, 111.269 134.693 M 201.269 134.693 C 202.242 134.947, 203.592 134.930, 204.269 134.656 C 204.946 134.382, 204.150 134.175, 202.500 134.195 C 200.850 134.215, 200.296 134.439, 201.269 134.693 M 69.004 137.496 C 67.714 138.869, 66.848 140.120, 67.079 140.277 C 67.311 140.434, 68.709 139.311, 70.186 137.781 C 71.664 136.251, 72.530 135, 72.111 135 C 71.691 135, 70.293 136.123, 69.004 137.496 M 82.814 137.781 C 84.291 139.311, 85.689 140.434, 85.921 140.277 C 86.497 139.886, 81.838 135, 80.889 135 C 80.470 135, 81.336 136.251, 82.814 137.781 M 118.923 137.589 C 120.615 139.013, 122 141.038, 122 142.089 C 122 143.140, 122.408 144, 122.906 144 C 123.405 144, 123.581 143.112, 123.297 142.027 C 122.722 139.828, 118.249 135, 116.787 135 C 116.270 135, 117.231 136.165, 118.923 137.589 M 195.025 136.975 C 192.294 139.706, 191.860 142.131, 192.250 152.500 C 192.589 161.500, 192.589 161.500, 192.794 151.327 C 192.983 141.996, 193.214 140.899, 195.589 138.077 C 198.473 134.650, 198.093 133.907, 195.025 136.975 M 103.989 139.250 C 102.899 141.037, 102.006 143.310, 102.004 144.300 C 101.998 147.128, 104.801 151.826, 107.260 153.110 C 109.162 154.102, 109.091 153.893, 106.790 151.725 C 102.862 148.021, 102.242 144.384, 104.756 139.793 C 107.295 135.158, 106.728 134.757, 103.989 139.250 M 210.215 138.250 C 210.922 139.488, 211.755 145.225, 212.067 151 C 212.634 161.500, 212.634 161.500, 212.817 151.700 C 212.950 144.577, 212.583 141.095, 211.474 138.950 C 210.635 137.328, 209.719 136, 209.439 136 C 209.159 136, 209.508 137.012, 210.215 138.250 M 229.107 146.877 C 229.659 148.460, 231.301 150.823, 232.757 152.127 C 235.404 154.500, 235.404 154.500, 232.702 151.173 C 231.216 149.344, 230 146.981, 230 145.923 C 230 144.865, 229.573 144, 229.052 144 C 228.467 144, 228.489 145.103, 229.107 146.877 M 122 146.577 C 122 147.444, 120.685 149.469, 119.077 151.077 C 117.469 152.685, 116.529 154, 116.988 154 C 118.265 154, 123 148.033, 123 146.423 C 123 145.640, 122.775 145, 122.500 145 C 122.225 145, 122 145.710, 122 146.577 M 67 148.678 C 67 149.235, 68.013 150.547, 69.250 151.595 C 71.500 153.500, 71.500 153.500, 69.511 151 C 68.417 149.625, 67.404 148.313, 67.261 148.083 C 67.117 147.854, 67 148.122, 67 148.678 M 218.392 154.554 C 218.339 158.064, 218.679 160.698, 219.148 160.409 C 220.190 159.764, 220.255 150.949, 219.229 149.337 C 218.822 148.697, 218.446 151.045, 218.392 154.554 M 289.144 151.750 C 288.053 154.300, 288.078 154.359, 289.484 152.559 C 290.318 151.491, 291 150.254, 291 149.809 C 291 148.289, 290.322 148.999, 289.144 151.750 M 85.425 153.731 C 87.001 155.631, 87.078 156.225, 85.943 157.731 C 84.671 159.419, 84.697 159.419, 86.523 157.746 C 88.401 156.024, 88.392 155.951, 86.005 153.746 C 83.574 151.500, 83.574 151.500, 85.425 153.731 M 62 153.313 C 62 153.485, 63.462 154.948, 65.250 156.563 C 68.500 159.500, 68.500 159.500, 65.563 156.250 C 62.825 153.221, 62 152.540, 62 153.313 M 100.496 155.843 C 101.586 157.131, 103.383 158.649, 104.489 159.215 C 106.613 160.303, 106.303 159.967, 101.507 155.985 C 98.620 153.588, 98.584 153.583, 100.496 155.843 M 111.750 154.662 C 112.438 154.940, 113.563 154.940, 114.250 154.662 C 114.938 154.385, 114.375 154.158, 113 154.158 C 111.625 154.158, 111.063 154.385, 111.750 154.662 M 147.750 154.662 C 148.438 154.940, 149.563 154.940, 150.250 154.662 C 150.938 154.385, 150.375 154.158, 149 154.158 C 147.625 154.158, 147.063 154.385, 147.750 154.662 M 237.750 154.662 C 238.438 154.940, 239.563 154.940, 240.250 154.662 C 240.938 154.385, 240.375 154.158, 239 154.158 C 237.625 154.158, 237.063 154.385, 237.750 154.662 M 273.750 154.662 C 274.438 154.940, 275.563 154.940, 276.250 154.662 C 276.938 154.385, 276.375 154.158, 275 154.158 C 273.625 154.158, 273.063 154.385, 273.750 154.662 M 246 159.081 C 244.846 159.889, 245.053 159.974, 246.896 159.452 C 249.039 158.844, 249.226 159.022, 248.660 161.136 C 248.312 162.436, 248.021 164.759, 248.014 166.298 C 248.005 168.026, 246.949 170.111, 245.250 171.752 C 242.634 174.279, 242.622 174.333, 245 172.847 C 247.771 171.117, 249.857 166.223, 249.944 161.250 C 250.002 157.871, 248.728 157.171, 246 159.081 M 222.086 167 C 222.055 167.825, 222.467 169.175, 223 170 C 224.181 171.828, 224.181 170.249, 223 167.500 C 222.433 166.181, 222.122 166.011, 222.086 167 M 228.693 167.934 C 228.971 168.999, 230.167 170.687, 231.350 171.685 C 233.481 173.484, 233.484 173.482, 231.750 171.421 C 230.787 170.278, 230 168.842, 230 168.230 C 230 167.619, 229.592 166.866, 229.093 166.558 C 228.595 166.249, 228.414 166.869, 228.693 167.934 M 250.566 175.750 C 248.405 178.512, 248.232 178.976, 249.909 177.511 C 251.914 175.760, 254.558 172, 253.785 172 C 253.628 172, 252.180 173.688, 250.566 175.750 M 227.500 177 C 228.495 178.100, 229.535 179, 229.810 179 C 230.085 179, 229.495 178.100, 228.500 177 C 227.505 175.900, 226.465 175, 226.190 175 C 225.915 175, 226.505 175.900, 227.500 177 M 29.655 180.750 C 29.400 181.162, 33.198 181.500, 38.095 181.500 C 42.993 181.500, 47 181.162, 47 180.750 C 47 180.338, 43.202 180, 38.559 180 C 33.916 180, 29.909 180.338, 29.655 180.750 M 99.158 188 C 99.158 189.375, 99.385 189.938, 99.662 189.250 C 99.940 188.563, 99.940 187.438, 99.662 186.750 C 99.385 186.063, 99.158 186.625, 99.158 188 M 129.872 187.750 C 128.603 189.369, 128.650 189.390, 130.500 188.033 C 131.600 187.226, 132.688 186.439, 132.917 186.283 C 133.146 186.127, 132.863 186, 132.289 186 C 131.715 186, 130.627 186.787, 129.872 187.750 M 167.654 188.241 C 167.172 190.164, 166.451 190.554, 163.553 190.458 C 161.117 190.377, 160.316 190.676, 160.945 191.433 C 161.443 192.034, 162.034 194.320, 162.257 196.513 C 162.660 200.462, 162.665 200.455, 162.832 195.750 C 162.924 193.137, 163.450 191, 164 191 C 164.550 191, 165.068 193.137, 165.150 195.750 C 165.300 200.500, 165.300 200.500, 165.954 196 C 166.485 192.346, 166.710 191.970, 167.154 194 C 167.700 196.500, 167.700 196.500, 167.668 194 C 167.651 192.625, 167.985 190.454, 168.410 189.175 C 168.835 187.896, 168.971 186.637, 168.711 186.378 C 168.452 186.119, 167.977 186.957, 167.654 188.241 M 170.731 188.080 C 171.085 189.432, 171.538 189.886, 171.788 189.137 C 172.028 188.415, 171.750 187.350, 171.168 186.768 C 170.426 186.026, 170.296 186.417, 170.731 188.080 M 174.872 187.750 C 173.603 189.369, 173.650 189.390, 175.500 188.033 C 176.600 187.226, 177.688 186.439, 177.917 186.283 C 178.146 186.127, 177.863 186, 177.289 186 C 176.715 186, 175.627 186.787, 174.872 187.750 M 211.079 187.421 C 211.036 188.478, 210.323 190.090, 209.496 191.005 C 208.206 192.430, 208.198 192.667, 209.440 192.667 C 210.237 192.667, 210.842 192.404, 210.786 192.083 C 210.729 191.762, 211.021 190.727, 211.436 189.783 C 211.850 188.839, 211.957 187.489, 211.673 186.783 C 211.374 186.038, 211.125 186.306, 211.079 187.421 M 213.731 188.080 C 214.085 189.432, 214.538 189.886, 214.788 189.137 C 215.028 188.415, 214.750 187.350, 214.168 186.768 C 213.426 186.026, 213.296 186.417, 213.731 188.080 M 240.859 188.750 C 240.781 190.262, 240.761 192.527, 240.815 193.782 C 240.876 195.217, 240.500 195.809, 239.802 195.378 C 239.131 194.963, 238.972 195.146, 239.401 195.840 C 239.792 196.472, 241.099 197.466, 242.306 198.050 C 244.153 198.942, 244.262 198.904, 243 197.805 C 241.954 196.895, 241.573 194.910, 241.740 191.250 C 241.873 188.363, 241.760 186, 241.490 186 C 241.221 186, 240.936 187.238, 240.859 188.750 M 149.345 190.543 C 149.019 191.392, 149.034 192.367, 149.376 192.710 C 149.719 193.053, 150 192.583, 150 191.667 C 150 190.750, 150.450 190, 151 190 C 152.291 190, 152.304 195.296, 151.017 196.583 C 150.372 197.228, 150.889 197.637, 152.517 197.772 C 154.822 197.963, 154.990 197.674, 154.858 193.739 C 154.716 189.500, 154.716 189.500, 154 193.500 C 153.284 197.500, 153.284 197.500, 153.142 193.250 C 153.039 190.162, 152.581 189, 151.469 189 C 150.626 189, 149.671 189.694, 149.345 190.543 M 84.428 194.934 C 84.364 199.378, 84.476 199.637, 85.561 197.545 C 86.725 195.301, 86.425 189.999, 85.133 190.001 C 84.785 190.001, 84.468 192.221, 84.428 194.934 M 101.829 194 C 102.038 196.200, 102.388 198, 102.605 198 C 102.822 198, 103 196.200, 103 194 C 103 191.800, 102.651 190, 102.224 190 C 101.797 190, 101.619 191.800, 101.829 194 M 105 191.137 C 105 191.611, 105.439 192, 105.975 192 C 106.609 192, 106.609 192.898, 105.975 194.565 C 105.439 195.976, 105.034 197.663, 105.076 198.315 C 105.118 198.967, 105.734 197.925, 106.444 196 C 107.155 194.075, 107.544 192.162, 107.309 191.750 C 107.074 191.338, 107.329 191, 107.875 191 C 108.420 191, 109.064 192.131, 109.305 193.512 C 109.707 195.813, 109.733 195.792, 109.622 193.262 C 109.528 191.138, 108.981 190.474, 107.250 190.387 C 106.013 190.324, 105 190.662, 105 191.137 M 111.944 191.964 C 112.376 192.809, 112.542 194.021, 112.312 194.658 C 112.082 195.295, 112.363 196.106, 112.936 196.460 C 113.546 196.837, 113.747 196.503, 113.420 195.653 C 113.114 194.855, 113.344 193.905, 113.932 193.542 C 115.693 192.454, 115.139 190.429, 113.079 190.429 C 111.678 190.429, 111.371 190.844, 111.944 191.964 M 122.345 191.543 C 122.019 192.392, 121.976 193.310, 122.249 193.583 C 122.523 193.856, 122.986 193.161, 123.279 192.040 C 123.903 189.657, 123.210 189.289, 122.345 191.543 M 130.153 191.247 C 128.503 192.897, 128.730 195.532, 130.661 197.128 C 132.170 198.375, 132.201 198.307, 131.003 196.382 C 130.278 195.218, 129.991 193.466, 130.366 192.489 C 131.176 190.378, 131.901 190.891, 132.500 194 C 132.741 195.249, 133.248 196.547, 133.628 196.885 C 134.008 197.223, 134.030 196.695, 133.676 195.712 C 133.273 194.591, 133.587 193.712, 134.517 193.355 C 136.206 192.707, 136.549 190, 134.941 190 C 134.359 190, 134.188 190.495, 134.562 191.100 C 135.050 191.890, 134.688 191.904, 133.274 191.147 C 131.863 190.392, 130.980 190.420, 130.153 191.247 M 142.250 190.720 C 141.563 190.966, 141.036 192.142, 141.079 193.333 C 141.133 194.819, 141.337 195.029, 141.729 194 C 142.043 193.175, 142.782 192.187, 143.371 191.804 C 144.729 190.922, 143.908 190.128, 142.250 190.720 M 157 190.878 C 157 191.495, 157.427 192, 157.948 192 C 158.520 192, 158.474 193.210, 157.832 195.051 C 157.247 196.729, 156.970 198.304, 157.217 198.550 C 157.463 198.797, 158.143 197.440, 158.728 195.535 C 159.566 192.803, 159.496 191.827, 158.395 190.913 C 157.385 190.075, 157 190.065, 157 190.878 M 174.477 192.073 C 173.753 194.353, 174.737 198, 176.076 198 C 176.593 198, 176.492 197.160, 175.851 196.132 C 175.141 194.997, 175.011 193.527, 175.518 192.382 C 176.268 190.690, 176.393 190.753, 176.761 193 C 176.985 194.375, 177.647 195.950, 178.232 196.500 C 178.966 197.191, 179.107 196.968, 178.689 195.776 C 178.315 194.714, 178.735 193.688, 179.783 193.101 C 181.850 191.945, 180.867 190.762, 177.546 190.408 C 175.853 190.227, 174.898 190.746, 174.477 192.073 M 192.607 191.582 C 191.757 193.796, 191.849 198.790, 192.750 199.341 C 193.162 199.594, 193.503 197.595, 193.507 194.900 C 193.512 192.205, 193.447 190, 193.364 190 C 193.282 190, 192.941 190.712, 192.607 191.582 M 202.579 191.564 C 201.719 192.424, 200.643 192.898, 200.189 192.617 C 199.734 192.336, 199.557 193.432, 199.794 195.053 C 200.052 196.810, 199.777 198, 199.113 198 C 198.501 198, 198 197.100, 198 196 C 198 193.631, 196.466 193.342, 195.618 195.552 C 195.291 196.406, 195.421 196.858, 195.907 196.558 C 196.393 196.257, 197.048 196.684, 197.364 197.506 C 198.046 199.283, 201 199.522, 201 197.800 C 201 196.867, 201.267 196.867, 202.200 197.800 C 202.860 198.460, 204.322 198.955, 205.450 198.900 C 207.171 198.817, 207.099 198.689, 205.005 198.106 C 201.910 197.245, 201.264 194.471, 203.567 191.926 C 205.647 189.628, 204.819 189.324, 202.579 191.564 M 217.286 194.500 C 217.294 197.250, 217.488 198.256, 217.718 196.736 C 217.947 195.216, 217.941 192.966, 217.704 191.736 C 217.467 190.506, 217.279 191.750, 217.286 194.500 M 222.512 190.846 C 222.742 191.075, 222.270 192.204, 221.465 193.354 C 220.659 194.504, 220.041 196.357, 220.090 197.473 C 220.150 198.809, 220.496 198.410, 221.106 196.299 C 222.280 192.239, 224 191.099, 224 194.382 C 224 195.757, 224.338 197.091, 224.750 197.345 C 225.162 197.600, 225.500 196.148, 225.500 194.119 C 225.500 191.310, 225.093 190.429, 223.798 190.429 C 222.861 190.429, 222.283 190.616, 222.512 190.846 M 228.452 190.782 C 226.770 191.934, 226.988 195.752, 228.817 197.183 C 230.328 198.365, 230.359 198.321, 229.128 196.750 C 228.042 195.366, 228.010 194.693, 228.972 193.534 C 230.389 191.826, 229.992 189.727, 228.452 190.782 M 245.232 193 C 245.232 194.925, 245.438 195.713, 245.689 194.750 C 245.941 193.787, 245.941 192.213, 245.689 191.250 C 245.438 190.287, 245.232 191.075, 245.232 193 M 250.263 191.757 C 249.420 193.954, 250.579 194.161, 252.953 192.239 C 255.189 190.429, 255.189 190.429, 252.981 190.429 C 251.766 190.429, 250.543 191.027, 250.263 191.757 M 258.241 191.986 C 256.739 194.391, 256.690 195, 258 195 C 258.550 195, 259 194.298, 259 193.441 C 259 192.584, 259.450 192.160, 260 192.500 C 260.550 192.840, 261 192.416, 261 191.559 C 261 189.410, 259.727 189.607, 258.241 191.986 M 265.775 191.250 C 265.533 191.938, 265.660 193.625, 266.057 195 C 266.661 197.092, 266.770 196.888, 266.727 193.750 C 266.673 189.758, 266.478 189.248, 265.775 191.250 M 270.342 191.552 C 270.038 192.342, 269.343 192.712, 268.795 192.374 C 268.183 191.995, 268.205 192.515, 268.853 193.726 C 269.615 195.150, 269.574 196.053, 268.703 196.994 C 267.831 197.935, 267.823 198.112, 268.674 197.634 C 269.337 197.263, 270.049 197.744, 270.308 198.738 C 270.561 199.707, 270.820 198.363, 270.884 195.750 C 271.034 189.602, 273 189.525, 273 195.667 C 273 201.338, 273.514 201.061, 274.311 194.959 C 274.840 190.914, 274.685 190.402, 272.899 190.267 C 271.795 190.184, 270.645 190.762, 270.342 191.552 M 277 191.213 C 277 191.646, 277.408 192, 277.906 192 C 278.405 192, 278.621 193.012, 278.386 194.250 C 277.993 196.322, 278.030 196.341, 278.854 194.500 C 279.347 193.400, 279.507 192.086, 279.211 191.580 C 278.914 191.074, 279.444 190.956, 280.388 191.319 C 281.343 191.685, 281.850 191.567, 281.532 191.052 C 280.850 189.948, 277 190.085, 277 191.213 M 93.901 191.691 C 93.847 192.136, 93.735 193.603, 93.651 194.950 C 93.547 196.643, 92.727 197.617, 91 198.101 C 88.790 198.719, 88.747 198.812, 90.628 198.900 C 91.798 198.955, 93.195 198.438, 93.733 197.750 C 95.223 195.846, 95.925 192.072, 94.906 191.442 C 94.408 191.134, 93.956 191.246, 93.901 191.691 M 99.118 195.762 C 99.249 198.630, 99.595 200.738, 99.887 200.446 C 100.506 199.828, 100.043 191.728, 99.349 191.024 C 99.092 190.762, 98.988 192.894, 99.118 195.762 M 125.075 192 C 125.071 193.441, 127.892 199.166, 127.965 197.865 C 127.984 197.515, 127.343 195.715, 126.539 193.865 C 125.736 192.014, 125.077 191.175, 125.075 192 M 145.150 193.180 C 145.040 195.139, 144.394 195.949, 142.750 196.189 C 140.989 196.447, 140.845 196.659, 142.091 197.167 C 144.621 198.198, 146.201 196.559, 145.730 193.391 C 145.300 190.500, 145.300 190.500, 145.150 193.180 M 147 193.833 C 147 195.575, 147.459 197, 148.019 197 C 148.624 197, 148.770 195.883, 148.378 194.250 C 147.437 190.324, 147 190.192, 147 193.833 M 171.149 195.248 C 171.350 197.859, 171.162 200.188, 170.732 200.423 C 170.302 200.658, 170.512 200.738, 171.200 200.600 C 172.414 200.357, 172.501 192.159, 171.301 191 C 171.017 190.725, 170.948 192.636, 171.149 195.248 M 214.079 194.691 C 214.036 196.996, 214.356 199.102, 214.791 199.371 C 215.226 199.640, 215.418 198.204, 215.219 196.180 C 214.672 190.646, 214.168 189.987, 214.079 194.691 M 82 192.882 C 82 193.432, 82.450 194.160, 83 194.500 C 83.550 194.840, 84 194.668, 84 194.118 C 84 193.568, 83.550 192.840, 83 192.500 C 82.450 192.160, 82 192.332, 82 192.882 M 57.032 196.137 C 53.190 202.359, 50.698 212.534, 51.222 219.856 C 51.776 227.607, 53.412 231.224, 58.683 236.362 C 67.296 244.755, 79.586 248.374, 99.500 248.380 C 125.677 248.388, 154.641 241.213, 189.295 226.138 C 196.883 222.838, 205.208 218.869, 207.795 217.319 C 212.500 214.500, 212.500 214.500, 197.743 214.223 C 182.985 213.946, 182.985 213.946, 169.743 218.879 C 144.009 228.465, 125.985 232.187, 105 232.250 C 89.340 232.297, 81.692 230.923, 73.071 226.515 C 62.214 220.963, 57.372 211.478, 59.022 198.997 C 59.422 195.974, 59.604 193.337, 59.428 193.137 C 59.252 192.938, 58.173 194.288, 57.032 196.137 M 89.500 194 C 88.771 195.180, 89.717 197, 91.059 197 C 91.577 197, 92 196.100, 92 195 C 92 192.891, 90.545 192.309, 89.500 194 M 137.086 194 C 137.055 194.825, 137.467 196.175, 138 197 C 139.181 198.828, 139.181 197.249, 138 194.500 C 137.433 193.181, 137.122 193.011, 137.086 194 M 204 194.917 C 204 196.145, 204.646 197, 205.573 197 C 206.505 197, 207.015 196.320, 206.823 195.333 C 206.337 192.824, 204 192.480, 204 194.917 M 254.158 195 C 254.158 196.375, 254.385 196.938, 254.662 196.250 C 254.940 195.563, 254.940 194.438, 254.662 193.750 C 254.385 193.063, 254.158 193.625, 254.158 195 M 208.731 195.920 C 208.296 197.583, 208.426 197.974, 209.168 197.232 C 209.750 196.650, 210.028 195.585, 209.788 194.863 C 209.538 194.114, 209.085 194.568, 208.731 195.920 M 237 195.441 C 237 196.234, 237.408 197.134, 237.907 197.442 C 238.405 197.751, 238.578 197.102, 238.290 196.001 C 237.679 193.666, 237 193.371, 237 195.441 M 211.158 198 C 211.158 199.375, 211.385 199.938, 211.662 199.250 C 211.940 198.563, 211.940 197.438, 211.662 196.750 C 211.385 196.063, 211.158 196.625, 211.158 198 M 37.624 198.539 C 36.659 201.053, 36.943 201.702, 38.122 199.675 C 38.706 198.671, 38.973 197.639, 38.715 197.382 C 38.458 197.124, 37.966 197.645, 37.624 198.539 M 182.796 197.537 C 182.478 197.855, 182.451 199.008, 182.736 200.099 C 183.367 202.513, 185.500 202.051, 185.500 199.500 C 185.500 197.651, 183.867 196.466, 182.796 197.537 M 24.310 203.500 C 24.315 206.800, 24.502 208.029, 24.725 206.232 C 24.947 204.435, 24.943 201.735, 24.715 200.232 C 24.486 198.729, 24.304 200.200, 24.310 203.500 M 183.638 199.500 C 183.955 200.325, 184.391 201, 184.607 201 C 184.823 201, 185 200.325, 185 199.500 C 185 198.675, 184.564 198, 184.031 198 C 183.499 198, 183.322 198.675, 183.638 199.500 M 35.158 208 C 35.158 209.375, 35.385 209.938, 35.662 209.250 C 35.940 208.563, 35.940 207.438, 35.662 206.750 C 35.385 206.063, 35.158 206.625, 35.158 208 M 34.272 217 C 34.272 219.475, 34.467 220.488, 34.706 219.250 C 34.944 218.012, 34.944 215.988, 34.706 214.750 C 34.467 213.512, 34.272 214.525, 34.272 217 M 33.384 227.726 C 35.267 229.953, 37.070 229.935, 36.921 227.691 C 36.868 226.892, 36.669 226.931, 36.317 227.811 C 35.912 228.823, 35.303 228.709, 33.646 227.311 C 31.500 225.500, 31.500 225.500, 33.384 227.726" stroke="none" fill="#2c6edb" fill-rule="evenodd"/><path d="M 238.301 12.482 C 213.050 16.370, 183.532 26.299, 153.500 41.009 C 130.452 52.297, 115.599 61.319, 113.107 65.544 C 111.079 68.981, 105.713 72.989, 103.131 72.996 C 99.507 73.006, 74.787 91.105, 67.076 99.394 C 64.651 102, 64.651 102, 71.853 102 C 79.054 102, 79.054 102, 86.777 96.155 C 138.700 56.857, 204.550 28.957, 257.410 23.858 C 275.545 22.108, 297.193 25.121, 305.715 30.581 C 309.133 32.771, 309.314 32.330, 306.817 27.889 C 303.686 22.317, 298.338 18.306, 289.428 14.846 C 282.474 12.145, 280.805 11.920, 264.735 11.508 C 252.813 11.202, 244.664 11.502, 238.301 12.482 M 124.567 111.258 C 123.462 112.943, 123.179 115.735, 123.451 122.258 C 123.818 131.059, 123.121 132.721, 120.262 129.862 C 119.637 129.237, 116.433 128.674, 113.142 128.612 C 106.425 128.486, 103.186 130.206, 99.250 135.990 C 96.625 139.846, 96.266 146.308, 98.394 151.400 C 101.448 158.710, 111.097 162.658, 118.424 159.596 C 123.170 157.613, 124.093 157.595, 123.362 159.500 C 122.926 160.635, 123.542 161, 125.893 161 C 129 161, 129 161, 129 138 C 129 115, 129 115, 132.500 115 C 135.722 115, 136 114.762, 136 112 C 136 109.069, 135.886 109, 131.023 109 C 126.960 109, 125.774 109.415, 124.567 111.258 M 69.500 129.939 C 65.071 132.209, 61.539 136.828, 60.535 141.666 C 58.220 152.823, 70.497 163.631, 81.399 160.033 C 86.367 158.394, 87.720 156.453, 85.559 154.065 C 83.973 152.312, 83.573 152.280, 80.311 153.643 C 77.586 154.782, 76.078 154.874, 73.705 154.047 C 70.461 152.916, 67 150.246, 67 148.875 C 67 148.427, 72.737 147.934, 79.750 147.780 C 92.500 147.500, 92.500 147.500, 92.312 143.258 C 91.810 131.972, 79.528 124.801, 69.500 129.939 M 133.207 137.847 C 133.726 148.629, 135.980 154.460, 141.087 158.235 C 147.881 163.257, 158.353 160.255, 162.697 152.040 C 164.650 148.347, 165 146.189, 165 137.843 C 165 128.010, 164.997 128, 162.500 128 C 160.027 128, 160 128.093, 160 136.599 C 160 147.001, 158.367 151.123, 153.294 153.531 C 148.568 155.773, 144.280 154.539, 141.268 150.070 C 139.312 147.168, 139 145.417, 139 137.352 C 139 128, 139 128, 135.866 128 C 132.733 128, 132.733 128, 133.207 137.847 M 195.500 129.815 C 192.926 131.027, 190.731 133.088, 189.342 135.599 C 186.908 140, 186.734 141.212, 186.889 152.750 C 186.998 160.854, 187.044 161, 189.500 161 C 191.992 161, 192 160.970, 192 151.450 C 192 139.760, 193.322 136.583, 198.878 134.919 C 201.838 134.032, 203.598 134.042, 206.389 134.963 C 211.694 136.714, 213 139.984, 213 151.517 C 213 161.133, 213 161.133, 215.730 160.816 C 218.461 160.500, 218.461 160.500, 218.433 150 C 218.413 142.107, 217.987 138.713, 216.718 136.329 C 212.855 129.071, 203.308 126.140, 195.500 129.815 M 223.667 128.667 C 222.531 129.802, 222.933 145.046, 224.212 149.312 C 226.919 158.349, 236.168 163.046, 244.446 159.587 C 246.535 158.714, 248.639 158, 249.122 158 C 250.306 158, 250.222 162.661, 248.956 167.221 C 247.628 172.001, 244.693 174, 239 174 C 233.899 174, 230.335 172.012, 228.962 168.399 C 228.318 166.705, 227.275 166, 225.416 166 C 223.048 166, 222.851 166.277, 223.452 168.750 C 224.518 173.130, 229.327 178.376, 233.597 179.816 C 241.560 182.502, 249.842 179.067, 253.381 171.610 C 254.706 168.817, 255 164.552, 255 148.099 C 255 128, 255 128, 252.619 128 C 250.313 128, 250.226 128.288, 249.830 137.250 C 249.335 148.430, 247.429 152.491, 241.900 154.148 C 237.609 155.434, 233.768 153.991, 230.856 150 C 228.620 146.936, 228.170 144.546, 228.074 135.250 C 228.009 128.913, 227.769 128, 226.167 128 C 225.158 128, 224.033 128.300, 223.667 128.667 M 259 134.951 C 259 144.669, 260.588 151.045, 264.058 155.254 C 269.102 161.373, 276.519 162.423, 283.710 158.036 C 288.758 154.957, 290.648 150.011, 291.269 138.250 C 291.811 128, 291.811 128, 288.906 128 C 286 128, 286 128, 286 135.935 C 286 140.299, 285.520 145.137, 284.933 146.685 C 282.362 153.470, 276.491 156.340, 270.994 153.497 C 266.594 151.222, 265 146.710, 265 136.532 C 265 128, 265 128, 262 128 C 259 128, 259 128, 259 134.951 M 296 144.500 C 296 161, 296 161, 298.500 161 C 301 161, 301 161, 301 144.500 C 301 128, 301 128, 298.500 128 C 296 128, 296 128, 296 144.500 M 73 134.660 C 71.009 135.449, 67 139.133, 67 140.174 C 67 140.628, 71.275 141, 76.500 141 C 81.725 141, 86 140.628, 86 140.174 C 86 136.933, 76.952 133.095, 73 134.660 M 107.763 135.565 C 104.949 137.092, 102 141.665, 102 144.500 C 102 147.789, 105.214 152.191, 108.670 153.635 C 112.963 155.429, 116.992 154.702, 119.898 151.608 C 125.042 146.133, 123.921 138.614, 117.508 135.571 C 113.447 133.644, 111.307 133.642, 107.763 135.565 M 28.897 183.750 C 22.454 200.577, 24.470 218.369, 33.836 227.343 C 36.739 230.124, 36.739 230.124, 35.320 224.812 C 32.768 215.266, 35.334 201.965, 42.304 188.601 C 44.054 185.245, 45.639 182.162, 45.826 181.750 C 46.013 181.338, 42.518 181, 38.059 181 C 30.135 181, 29.926 181.063, 28.897 183.750 M 241.882 187.667 C 241.816 189.775, 241.847 192.109, 241.949 192.853 C 242.248 195.028, 241.101 197.180, 240.004 196.503 C 239.333 196.088, 239.363 195.190, 240.094 193.824 C 240.963 192.200, 240.911 191.863, 239.847 192.218 C 239.106 192.465, 238.500 193.754, 238.500 195.083 C 238.500 196.833, 239.052 197.500, 240.500 197.500 C 241.600 197.500, 243.092 197.883, 243.817 198.350 C 244.541 198.818, 245.271 199.043, 245.439 198.850 C 245.607 198.658, 245.465 195.386, 245.122 191.580 C 244.430 183.880, 242.086 181.050, 241.882 187.667 M 96.866 188.500 C 95.700 190.783, 95.547 192.516, 96.226 195.750 C 97.448 201.571, 99.625 201.386, 99.157 195.500 C 98.895 192.216, 99.164 190.996, 100.149 190.985 C 101.088 190.974, 101.154 190.745, 100.366 190.235 C 99.742 189.831, 99.044 188.600, 98.815 187.500 C 98.450 185.745, 98.212 185.867, 96.866 188.500 M 131.441 187.468 C 128.955 189.348, 130.728 189.370, 134 187.500 C 135.602 186.584, 135.940 186.058, 134.941 186.035 C 134.084 186.016, 132.509 186.661, 131.441 187.468 M 168.448 188.757 C 167.192 193.255, 168.301 200, 170.295 200 C 171.165 200, 171.432 198.731, 171.160 195.881 C 170.898 193.130, 171.221 191.474, 172.134 190.896 C 173.132 190.264, 173.163 190.026, 172.250 190.015 C 171.563 190.007, 171 189.352, 171 188.559 C 171 185.864, 169.217 186.002, 168.448 188.757 M 176.441 187.468 C 175.374 188.276, 174.976 188.951, 175.559 188.968 C 176.141 188.986, 177.491 188.339, 178.559 187.532 C 179.626 186.724, 180.024 186.049, 179.441 186.032 C 178.859 186.014, 177.509 186.661, 176.441 187.468 M 212 187.882 C 212 188.982, 211.610 190.123, 211.133 190.418 C 209.948 191.150, 212.065 200, 213.426 200 C 214.099 200, 214.381 198.318, 214.164 195.591 C 213.876 191.973, 214.144 191.097, 215.657 190.707 C 217.310 190.281, 217.319 190.220, 215.750 190.116 C 214.787 190.052, 214 189.352, 214 188.559 C 214 187.766, 213.550 186.840, 213 186.500 C 212.450 186.160, 212 186.782, 212 187.882 M 79.725 190.750 C 78.906 192.312, 81.164 200, 82.442 200 C 83.831 200, 85.012 196.897, 84.916 193.500 C 84.859 191.500, 84.859 191.500, 84.040 193.500 C 83.275 195.367, 83.148 195.317, 82.135 192.750 C 81.023 189.933, 80.417 189.430, 79.725 190.750 M 88.516 191.983 C 85.961 194.805, 86.931 197.500, 90.500 197.500 C 94.193 197.500, 95.068 194.643, 92.194 191.966 C 90.259 190.164, 90.162 190.164, 88.516 191.983 M 103 194.500 C 103 199.603, 104.509 200.512, 105.499 196.006 C 105.860 194.359, 106.909 192.538, 107.828 191.958 C 109.213 191.085, 109.114 191.010, 107.250 191.520 C 105.938 191.878, 105 191.690, 105 191.067 C 105 190.480, 104.550 190, 104 190 C 103.450 190, 103 192.025, 103 194.500 M 111.170 190.874 C 110.414 191.353, 109.982 192.966, 110.170 194.609 C 110.424 196.838, 111.072 197.567, 113 197.793 C 114.958 198.023, 115.175 197.869, 114 197.081 C 112.195 195.871, 111.787 191.792, 113.368 190.765 C 113.991 190.361, 114.050 190.031, 113.500 190.031 C 112.950 190.031, 111.901 190.410, 111.170 190.874 M 123.355 191.518 C 123.034 192.353, 123.345 194.419, 124.046 196.110 C 125.107 198.672, 125.084 199.333, 123.910 200.077 C 122.830 200.760, 123.008 200.973, 124.667 200.985 C 127.563 201.005, 128.023 199.192, 126.135 195.191 C 124.770 192.299, 124.758 191.765, 126.037 190.956 C 127.253 190.187, 127.199 190.028, 125.719 190.015 C 124.739 190.007, 123.675 190.683, 123.355 191.518 M 131.200 191.200 C 128.767 193.633, 130.545 198.018, 133.950 197.985 C 135.135 197.973, 135.197 197.777, 134.214 197.154 C 133.507 196.705, 132.701 195.082, 132.423 193.546 C 132.014 191.292, 132.224 190.872, 133.510 191.365 C 134.433 191.720, 134.847 191.561, 134.493 190.989 C 133.682 189.676, 132.659 189.741, 131.200 191.200 M 139.011 191.487 C 137.093 193.798, 138.573 198.016, 141.269 197.921 C 142.496 197.878, 142.938 197.615, 142.250 197.338 C 141.563 197.060, 141 195.558, 141 194 C 141 192.442, 141.563 190.940, 142.250 190.662 C 143.046 190.341, 142.909 190.129, 141.872 190.079 C 140.977 190.036, 139.690 190.669, 139.011 191.487 M 149.434 193.500 C 148.610 197.893, 147.253 198.018, 146.723 193.750 C 146.326 190.550, 146.318 190.558, 146.160 194.250 C 146.032 197.254, 146.358 198, 147.800 198 C 150.397 198, 152 196.016, 152 192.800 C 152 188.835, 150.218 189.321, 149.434 193.500 M 155 194.500 C 155 199.603, 156.509 200.512, 157.499 196.006 C 157.860 194.359, 158.909 192.538, 159.828 191.958 C 161.213 191.085, 161.114 191.010, 159.250 191.520 C 157.938 191.878, 157 191.690, 157 191.067 C 157 190.480, 156.550 190, 156 190 C 155.450 190, 155 192.025, 155 194.500 M 176.200 191.200 C 173.765 193.635, 175.553 198.036, 178.950 197.970 C 180.226 197.945, 180.191 197.759, 178.750 196.920 C 176.489 195.603, 176.307 190.520, 178.552 191.382 C 179.442 191.723, 179.843 191.555, 179.493 190.989 C 178.682 189.676, 177.659 189.741, 176.200 191.200 M 193.639 191.498 C 192.663 194.042, 192.878 198.807, 194 199.500 C 194.550 199.840, 195.056 199.641, 195.125 199.059 C 195.194 198.477, 195.363 197.550, 195.500 197 C 195.637 196.450, 195.806 195.550, 195.875 195 C 196.111 193.111, 198 194, 198 196 C 198 197.100, 198.480 198, 199.066 198 C 199.653 198, 199.990 196.762, 199.816 195.250 C 199.603 193.395, 198.917 192.497, 197.708 192.491 C 196.723 192.486, 195.548 191.886, 195.097 191.157 C 194.449 190.109, 194.145 190.180, 193.639 191.498 M 203.516 191.983 C 200.961 194.805, 201.931 197.500, 205.500 197.500 C 209.193 197.500, 210.068 194.643, 207.194 191.966 C 205.259 190.164, 205.162 190.164, 203.516 191.983 M 218 194.500 C 218 196.975, 218.450 199, 219 199 C 219.550 199, 220 198.200, 220 197.223 C 220 196.245, 220.756 194.366, 221.680 193.046 C 223.253 190.800, 223.253 190.689, 221.680 191.293 C 220.756 191.647, 220 191.501, 220 190.969 C 220 190.436, 219.550 190, 219 190 C 218.450 190, 218 192.025, 218 194.500 M 225.390 191.427 C 224.367 194.092, 225.460 197.472, 227.468 197.855 C 229.013 198.150, 229.204 197.937, 228.354 196.865 C 226.962 195.108, 226.988 191.710, 228.401 190.765 C 229.075 190.315, 228.810 190.025, 227.719 190.015 C 226.739 190.007, 225.691 190.642, 225.390 191.427 M 247.832 192.470 C 246.547 195.289, 248.049 198.011, 250.872 197.985 C 252.188 197.972, 252.235 197.802, 251.120 197.095 C 250.243 196.540, 249.907 195.089, 250.197 193.111 C 250.744 189.386, 249.402 189.023, 247.832 192.470 M 254.717 190.660 C 254.319 191.298, 254.182 192.423, 254.413 193.160 C 254.644 193.897, 255.104 195.738, 255.436 197.250 C 256.296 201.178, 258.650 200.679, 259.453 196.398 C 259.825 194.417, 259.875 192.542, 259.564 192.231 C 259.254 191.921, 259 192.417, 259 193.333 C 259 195.928, 257.491 195.295, 256.413 192.250 C 255.800 190.516, 255.173 189.928, 254.717 190.660 M 263.558 191.936 C 262.605 192.990, 261.980 194.672, 262.171 195.676 C 262.607 197.971, 267.224 198.640, 268.878 196.647 C 269.849 195.477, 269.618 194.690, 267.687 192.608 C 265.337 190.072, 265.257 190.059, 263.558 191.936 M 275 194.583 C 275 199.495, 277.209 200.543, 277.821 195.922 C 277.997 194.590, 278.897 192.891, 279.821 192.147 C 281.328 190.931, 281.270 190.862, 279.250 191.464 C 277.903 191.866, 277 191.706, 277 191.067 C 277 190.480, 276.550 190, 276 190 C 275.450 190, 275 192.063, 275 194.583 M 163 195.500 C 163 197.975, 163.450 200, 164 200 C 164.550 200, 165 197.975, 165 195.500 C 165 193.025, 164.550 191, 164 191 C 163.450 191, 163 193.025, 163 195.500 M 271 195.500 C 271 197.975, 271.450 200, 272 200 C 272.550 200, 273 197.975, 273 195.500 C 273 193.025, 272.550 191, 272 191 C 271.450 191, 271 193.025, 271 195.500 M 264.602 193.596 C 263.923 195.363, 264.624 197, 266.059 197 C 267.257 197, 267.296 193.301, 266.105 192.565 C 265.612 192.260, 264.936 192.725, 264.602 193.596 M 89.500 194 C 88.771 195.180, 89.717 197, 91.059 197 C 91.577 197, 92 196.100, 92 195 C 92 192.891, 90.545 192.309, 89.500 194 M 204 194.917 C 204 196.145, 204.646 197, 205.573 197 C 206.505 197, 207.015 196.320, 206.823 195.333 C 206.337 192.824, 204 192.480, 204 194.917 M 183.638 199.500 C 183.955 200.325, 184.391 201, 184.607 201 C 184.823 201, 185 200.325, 185 199.500 C 185 198.675, 184.564 198, 184.031 198 C 183.499 198, 183.322 198.675, 183.638 199.500" stroke="none" fill="#23407f" fill-rule="evenodd"/></svg>